# xmcd
#
# Track frame offsets:
#	150
#	23687
#	58054
#	85559
#	105841
#	128051
#	154500
#
# Disc length: 2351 seconds
#
# Revision: 1
# Processed by: cddbd v1.4PL0 Copyright (c) Steve Scherf et al.
# Submitted via: audiograbber 1.82.01
#
DISCID=41092d07
DTITLE=Saber El Rouba3i - Yalli Jamlik
DYEAR=1900
DGENRE=
TTITLE0=Yalli Jamalik
TTITLE1=El Om
TTITLE2=Erja3 Li Hobbak
TTITLE3=Ana Ikhtartak
TTITLE4=3asalia
TTITLE5=Law Han Waktak
TTITLE6=Soltan Hawa
EXTD=
EXTT0=
EXTT1=
EXTT2=
EXTT3=
EXTT4=
EXTT5=
EXTT6=
PLAYORDER=
